# xmcd CD database file
#
# Track frame offsets:
#	150
#	4240
#	15882
#	29110
#	40765
#	54160
#	63175
#	74542
#	83985
#	93092
#	101767
#	112500
#	124222
#	132972
#	143120
#	155335
#	165007
#	177952
#	190112
#	205835
#	218300
#	233755
#	246490
#
# Disc length: 3505 seconds
#
# Revision: 1
# Processed by: cddbd v1.5.2PL0 Copyright (c) Steve Scherf et al.
# Submitted via: CDex 1.70beta3
#
DISCID=220daf17
DTITLE=Various Artist - アニメ主題歌大全集04
DYEAR=1900
DGENRE=Blues
TTITLE0=前川陽子/ぼくのすてきなパパとママ
TTITLE1=古今亭志ん朝／ボーカル・ショップ/ロボタンの歌
TTITLE2=ハニー・ナイツ/ロボタン・マーチ
TTITLE3=藤田淑子/キング・コング
TTITLE4=フォー・シンガーズ/００１／7親ゆびトム
TTITLE5=ハニー・ナイツ/スカイヤーズ5
TTITLE6=上高田少年合唱団/スカイヤーズ・マーチ
TTITLE7=山岸比呂美／山本喜代子/ドンキッコ
TTITLE8=山岸比呂美／山本喜代子/ドンキッコ・ソング
TTITLE9=ボーカル・ショップ／上高田少年合唱団/わんぱく探偵団の歌
TTITLE10=世良明良/二十面相は歌う
TTITLE11=松川義昭/バンパイヤのテーマ
TTITLE12=佐藤博/ロックのバラード
TTITLE13=千々松幸子/ブッチー・マーチ
TTITLE14=藤田淑子/どろろのうた
TTITLE15=葵公彦/百鬼丸の歌
TTITLE16=フォー・スラッガーズ/男どアホウ!甲子園
TTITLE17=フォー・スラッガーズ/どアホウ賛歌
TTITLE18=アイドル・フォー/天才バカボン
TTITLE19=ギミック/太陽の使者 鉄人28号
TTITLE20=ギミック/希望に向かって～正太郎のテーマ～
TTITLE21=ギミック/無敵の鉄人28号
TTITLE22=ギミック/誰かが僕らを呼んでいる
EXTD=
EXTT0=
EXTT1=
EXTT2=
EXTT3=
EXTT4=
EXTT5=
EXTT6=
EXTT7=
EXTT8=
EXTT9=
EXTT10=
EXTT11=
EXTT12=
EXTT13=
EXTT14=
EXTT15=
EXTT16=
EXTT17=
EXTT18=
EXTT19=
EXTT20=
EXTT21=
EXTT22=
PLAYORDER=
